<?xml version="1.0" encoding="UTF-8" standalone="no"?>
<svg
   xmlns:dc="http://purl.org/dc/elements/1.1/"
   xmlns:cc="http://creativecommons.org/ns#"
   xmlns:rdf="http://www.w3.org/1999/02/22-rdf-syntax-ns#"
   xmlns:svg="http://www.w3.org/2000/svg"
   xmlns="http://www.w3.org/2000/svg"
   xmlns:sodipodi="http://sodipodi.sourceforge.net/DTD/sodipodi-0.dtd"
   xmlns:inkscape="http://www.inkscape.org/namespaces/inkscape"
   width="45.720001mm"
   height="128.5mm"
   viewBox="0 0 45.720001 128.5"
   version="1.1"
   id="svg8"
   inkscape:version="1.0.1 (3bc2e813f5, 2020-09-07)"
   sodipodi:docname="N8NYERouter.svg">
  <defs
     id="defs2">
    <rect
       x="4.543582"
       y="1.2027129"
       width="35.947751"
       height="10.824416"
       id="rect55" />
  </defs>
  <sodipodi:namedview
     id="base"
     pagecolor="#ffffff"
     bordercolor="#666666"
     borderopacity="1.0"
     inkscape:pageopacity="0.0"
     inkscape:pageshadow="2"
     inkscape:zoom="1.979899"
     inkscape:cx="44.343692"
     inkscape:cy="144.28571"
     inkscape:document-units="mm"
     inkscape:current-layer="layer4"
     inkscape:document-rotation="0"
     showgrid="false"
     inkscape:snap-grids="false"
     inkscape:window-width="1346"
     inkscape:window-height="1040"
     inkscape:window-x="210"
     inkscape:window-y="3"
     inkscape:window-maximized="0" />
  <metadata
     id="metadata5">
    <rdf:RDF>
      <cc:Work
         rdf:about="">
        <dc:format>image/svg+xml</dc:format>
        <dc:type
           rdf:resource="http://purl.org/dc/dcmitype/StillImage" />
        <dc:title></dc:title>
      </cc:Work>
    </rdf:RDF>
  </metadata>
  <g
     inkscape:groupmode="layer"
     id="layer2"
     inkscape:label="components"
     style="display:inline">
    <g
       inkscape:groupmode="layer"
       id="layer3"
       inkscape:label="background "
       style="display:inline">
      <rect
         style="fill:#008080;stroke-width:0.264583"
         id="rect50"
         width="46.103992"
         height="128.95753"
         x="0"
         y="0" />
    </g>
    <g
       inkscape:groupmode="layer"
       id="layer4"
       inkscape:label="N8NYE"
       style="display:inline">
      <text
         xml:space="preserve"
         id="text53"
         style="font-style:normal;font-weight:normal;font-size:10.5833px;line-height:1.25;font-family:sans-serif;white-space:pre;shape-inside:url(#rect55);fill:#000000;fill-opacity:1;stroke:none;" />
      <g
         aria-label="N8NYE"
         id="N8NYE"
         style="font-style:normal;font-weight:normal;font-size:10.5833px;line-height:1.25;font-family:sans-serif;fill:#000000;fill-opacity:1;stroke:none;stroke-width:0.264583"
         inkscape:label="N8NYE"
         transform="translate(-0.80180858,4.2763124)">
        <path
           d="M 7.3195267,2.3073401 H 8.7251212 L 12.14609,8.7617059 V 2.3073401 h 1.012855 V 10.022607 H 11.75335 L 8.3323816,3.568241 v 6.454366 H 7.3195267 Z"
           style="stroke-width:0.264583"
           id="path78" />
        <path
           d="m 17.561763,6.3587595 q -0.744138,0 -1.173051,0.3979072 -0.423746,0.3979073 -0.423746,1.0955369 0,0.6976296 0.423746,1.0955369 0.428913,0.3979072 1.173051,0.3979072 0.744138,0 1.173051,-0.3979072 0.428913,-0.4030749 0.428913,-1.0955369 0,-0.6976296 -0.428913,-1.0955369 Q 18.311069,6.3587595 17.561763,6.3587595 Z M 16.517902,5.9143436 Q 15.846111,5.7489795 15.468874,5.2890607 15.096805,4.8291419 15.096805,4.1676857 q 0,-0.9250052 0.656289,-1.4624384 0.661456,-0.5374331 1.808669,-0.5374331 1.152381,0 1.808669,0.5374331 0.656289,0.5374332 0.656289,1.4624384 0,0.6614562 -0.377237,1.121375 -0.372069,0.4599188 -1.038693,0.6252829 0.754474,0.1756993 1.173052,0.6872943 0.423745,0.5115951 0.423745,1.2505657 0,1.121375 -0.687294,1.7208197 -0.682127,0.5994447 -1.958531,0.5994447 -1.276404,0 -1.963698,-0.5994447 -0.682127,-0.5994447 -0.682127,-1.7208197 0,-0.7389706 0.423746,-1.2505657 0.423745,-0.511595 1.178218,-0.6872943 z m -0.382404,-1.648473 q 0,0.5994447 0.372069,0.9353405 0.377237,0.3358957 1.054196,0.3358957 0.671792,0 1.049028,-0.3358957 0.382405,-0.3358958 0.382405,-0.9353405 0,-0.5994447 -0.382405,-0.9353404 -0.377236,-0.3358958 -1.049028,-0.3358958 -0.676959,0 -1.054196,0.3358958 -0.372069,0.3358957 -0.372069,0.9353404 z"
           style="stroke-width:0.264583"
           id="path80" />
        <path
           d="m 21.969749,2.3073401 h 1.405594 l 3.420969,6.4543658 V 2.3073401 h 1.012855 V 10.022607 H 26.403572 L 22.982603,3.568241 v 6.454366 h -1.012854 z"
           style="stroke-width:0.264583"
           id="path82" />
        <path
           d="m 28.827189,2.3073401 h 1.121375 l 2.139398,3.1729228 2.123894,-3.1729228 h 1.121375 L 32.604725,6.3484242 V 10.022607 H 31.555696 V 6.3484242 Z"
           style="stroke-width:0.264583"
           id="path84" />
        <path
           d="m 36.351254,2.3073401 h 4.878239 v 0.8784965 h -3.834379 v 2.2840911 h 3.674183 v 0.8784965 h -3.674183 v 2.7956861 h 3.927396 v 0.8784967 h -4.971256 z"
           style="stroke-width:0.264583"
           id="path86" />
      </g>
    </g>
  </g>
</svg>
